<svg width="32" height="32" viewBox="0 0 32 32" fill="none" xmlns="http://www.w3.org/2000/svg" aria-hidden="true" role="img" class="iconify iconify--logos" >
    <rect width="32" height="32" rx="4" fill="white"/>
    <path d="M12.2556 9.05344C12.2556 7.36707 10.8875 6 9.20001 6V19.2824H9.20168C9.28292 23.0063 12.3291 26 16.075 26C19.872 26 22.95 22.9241 22.95 19.1298C22.95 15.3354 19.872 12.2595 16.075 12.2595V12.3359H16.0752C16.0877 13.7511 16.7946 15.0007 17.8719 15.7609C18.0193 15.8395 18.1608 15.9276 18.2958 16.0241C18.3133 16.0336 18.3671 16.0763 18.3671 16.0763C19.2945 16.7727 19.8945 17.8812 19.8945 19.1298C19.8945 21.2377 18.1844 22.9466 16.075 22.9466C13.9656 22.9466 12.2556 21.2377 12.2556 19.1298V9.05344Z" fill="#0172B2"/>
    </svg>
    